<?xml version="1.0" ?><svg id="katman_1" style="enable-background:new 0 0 512 512;" version="1.1" viewBox="0 0 512 512" xml:space="preserve" xmlns="http://www.w3.org/2000/svg" xmlns:xlink="http://www.w3.org/1999/xlink"><style type="text/css">
	.st0{fill:#95A5A6;}
	.st1{fill:#7E8C8D;}
	.st2{fill:#FFFFFF;}
</style><g><circle class="st0" cx="256" cy="256" r="250"/></g><path class="st1" d="M506,258.5c-0.1-0.1-0.2-0.3-0.4-0.4c-36.4-36.3-72.7-72.8-109.2-109.1c-9.6-9.5-21.3-12.7-34.4-9.5  c-18.8,4.6-30.1,23.2-26.6,41.8c1.5,7.6,5.1,14,10.7,19.4c1.9,1.9,1.9,1.1,0.6,3.5c-7.8,14.9-15.5,29.7-23.3,44.6  c-0.2,0.4-0.4,0.7-0.5,1.1c-0.3,0.6-0.7,0.8-1.3,0.6c-0.4-0.2-0.9-0.2-1.4-0.3c-12.3-2.4-23.1,0.8-32.3,9.2  c-0.7,0.6-1.3,1.4-2.2,2.3c-0.8-0.9-1.4-1.6-2-2.2c-18.7-18.7-37.4-37.4-56.2-56.2c-0.7-0.7-1.5-1.5-2.2-2.2  c-9.6-8.4-20.8-11.4-33.2-8.4c-18.6,4.6-30.5,23.1-26.5,42.5c1.5,7.5,5.3,13.8,10.9,19.1c1.4,1.3,1.3,1.3,0.5,3  c-7.8,14.9-15.6,29.8-23.4,44.8c-1,1.9-1,1.9-3,1.5c-5.2-1.2-10.4-1.1-15.7,0.1c-15.6,3.4-27.4,17.6-28,33.6  c-0.4,10.7,3.3,19.9,10.9,27.5c46.8,46.8,93.7,93.7,140.5,140.5c0.2,0.2,0.4,0.3,0.5,0.5c0.1,0.1,0.2,0.2,0.3,0.3  C394.8,504.4,504.6,394.4,506,258.5z"/><path class="st2" d="M404.4,163.1c-5.9-18.9-26.2-29.5-45.1-23.6c-18.9,5.9-29.5,26.2-23.6,45.1c2.2,6.9,6.2,12.7,11.4,17  l-25.5,48.7c-6.5-1.8-13.6-1.9-20.5,0.3c-7.2,2.2-13.1,6.5-17.4,12l-49.2-25.7c1.8-6.5,1.9-13.6-0.3-20.5  c-5.9-18.9-26.2-29.5-45.1-23.6c-18.9,5.9-29.5,26.2-23.6,45.1c2.2,6.9,6.2,12.7,11.4,17l-25.5,48.7c-6.5-1.8-13.6-1.9-20.5,0.3  c-18.9,5.9-29.5,26.2-23.6,45.1c5.9,18.9,26.2,29.5,45.1,23.6s29.5-26.2,23.6-45.1c-2.2-6.9-6.2-12.7-11.4-17l25.5-48.7  c6.5,1.8,13.6,1.9,20.5-0.3c6.9-2.2,12.7-6.2,17-11.4l49.5,25.9c-1.6,6.3-1.6,13.1,0.5,19.7c5.9,18.9,26.2,29.5,45.1,23.6  c18.9-5.9,29.5-26.2,23.6-45.1c-2.2-6.9-6.2-12.7-11.4-17l25.5-48.7c6.5,1.8,13.6,1.9,20.5-0.3C399.7,202.2,410.3,182,404.4,163.1z   M148.3,358.3c-11.1,3.5-23-2.7-26.4-13.8c-3.5-11.1,2.7-23,13.8-26.4c11.1-3.5,23,2.7,26.4,13.8C165.6,343,159.4,354.8,148.3,358.3  z M206.3,247.3c-11.1,3.5-23-2.7-26.4-13.8c-3.5-11.1,2.7-23,13.8-26.4c11.1-3.5,23,2.7,26.4,13.8  C223.6,231.9,217.4,243.8,206.3,247.3z M318.3,305c-11.1,3.5-23-2.7-26.4-13.8c-3.5-11.1,2.7-23,13.8-26.4  c11.1-3.5,23,2.7,26.4,13.8C335.6,289.7,329.4,301.5,318.3,305z M376.3,194c-11.1,3.5-23-2.7-26.4-13.8c-3.5-11.1,2.7-23,13.8-26.4  c11.1-3.5,23,2.7,26.4,13.8C393.6,178.6,387.4,190.5,376.3,194z"/></svg>